<?xml version="1.0" standalone="no"?>
<!DOCTYPE svg PUBLIC "-//W3C//DTD SVG 20010904//EN"
 "http://www.w3.org/TR/2001/REC-SVG-20010904/DTD/svg10.dtd">
<svg version="1.0" xmlns="http://www.w3.org/2000/svg"
 width="1280.000000pt" height="1280.000000pt" viewBox="0 0 1280.000000 1280.000000"
 preserveAspectRatio="xMidYMid meet">

<g transform="translate(0.000000,1280.000000) scale(0.100000,-0.100000)"
fill="#000000" stroke="none">
<path d="M7735 10810 c-3 -6 1 -7 9 -4 18 7 21 14 7 14 -6 0 -13 -4 -16 -10z"/>
<path d="M7947 10683 c-4 -3 -7 -11 -7 -17 0 -6 5 -5 12 2 6 6 9 14 7 17 -3 3
-9 2 -12 -2z"/>
<path d="M7996 10641 c-4 -5 -2 -12 3 -15 5 -4 12 -2 15 3 4 5 2 12 -3 15 -5
4 -12 2 -15 -3z"/>
<path d="M10485 9260 c3 -5 12 -7 20 -3 21 7 19 13 -6 13 -11 0 -18 -4 -14
-10z"/>
<path d="M7880 8540 c0 -5 5 -10 10 -10 6 0 10 5 10 10 0 6 -4 10 -10 10 -5 0
-10 -4 -10 -10z"/>
<path d="M10531 5898 c-1 -10 -13 -25 -28 -35 -16 -9 -40 -29 -54 -44 -15 -15
-41 -35 -58 -45 -17 -10 -31 -22 -31 -27 0 -4 -4 -6 -8 -3 -5 3 -16 -6 -26
-19 -10 -14 -22 -23 -25 -20 -4 2 -25 -11 -47 -30 -21 -19 -45 -35 -51 -35 -7
0 -13 -4 -13 -8 0 -10 -188 -135 -208 -138 -6 -1 -25 -13 -40 -26 -15 -12 -45
-32 -65 -43 -20 -11 -37 -23 -37 -27 0 -5 -7 -8 -15 -8 -8 0 -24 -9 -36 -21
-11 -11 -23 -18 -26 -15 -4 3 -13 -3 -20 -14 -8 -11 -18 -18 -22 -15 -5 2 -19
-4 -31 -15 -12 -11 -31 -22 -41 -25 -11 -4 -19 -10 -19 -15 0 -5 -10 -12 -22
-16 -13 -3 -31 -13 -40 -22 -10 -8 -18 -12 -18 -9 0 3 -12 -5 -27 -19 -15 -14
-32 -23 -39 -20 -7 3 -15 -1 -17 -9 -6 -14 -157 -101 -169 -97 -5 1 -8 -4 -8
-11 0 -7 -16 -19 -35 -27 -19 -8 -35 -18 -35 -22 0 -5 -3 -7 -8 -4 -4 2 -34
-13 -66 -35 -32 -21 -62 -36 -67 -33 -5 3 -9 0 -9 -5 0 -6 -5 -11 -11 -11 -6
0 -31 -14 -57 -32 -26 -18 -48 -30 -49 -28 -1 3 -11 -3 -22 -12 -11 -9 -22
-13 -26 -10 -4 4 -12 -1 -19 -10 -7 -9 -42 -31 -79 -49 -37 -17 -67 -36 -67
-41 0 -5 -4 -6 -10 -3 -5 3 -10 2 -10 -3 0 -10 -101 -68 -112 -64 -5 1 -8 -3
-8 -9 0 -5 -5 -7 -10 -4 -6 3 -13 0 -16 -8 -3 -8 -27 -27 -55 -41 -27 -15 -49
-32 -49 -37 0 -6 -4 -8 -9 -4 -5 3 -12 1 -16 -5 -4 -6 -11 -7 -17 -4 -6 4 -8
2 -4 -4 6 -11 -30 -28 -49 -23 -5 1 -7 -1 -3 -4 11 -11 -83 -71 -105 -66 -4 0
-10 -6 -13 -14 -4 -8 -12 -15 -20 -15 -8 0 -14 -4 -14 -9 0 -5 -26 -21 -57
-36 -73 -34 -115 -64 -107 -76 3 -5 2 -8 -3 -7 -4 1 -26 -9 -48 -23 -22 -15
-50 -29 -63 -33 -12 -4 -20 -12 -17 -17 4 -5 0 -9 -8 -9 -8 0 -22 -9 -32 -20
-10 -12 -25 -18 -32 -16 -7 3 -13 1 -13 -5 0 -6 -5 -7 -12 -3 -7 4 -8 3 -4 -5
4 -6 0 -14 -11 -18 -10 -4 -33 -17 -52 -30 -18 -12 -38 -20 -44 -16 -5 3 -7 1
-4 -4 4 -6 -14 -23 -38 -39 -25 -15 -45 -32 -45 -37 0 -5 -7 -6 -16 -3 -8 3
-12 2 -9 -4 3 -6 0 -10 -7 -10 -7 0 -25 -11 -40 -24 -14 -14 -29 -22 -32 -19
-3 4 -6 0 -6 -7 0 -7 -3 -10 -7 -7 -3 4 -17 -5 -30 -19 -13 -15 -26 -24 -29
-21 -3 3 -16 -6 -30 -20 -14 -14 -31 -22 -39 -19 -9 3 -12 0 -8 -10 3 -8 -1
-14 -9 -14 -7 0 -25 -11 -40 -25 -15 -14 -31 -25 -36 -25 -6 0 -12 -7 -16 -15
-3 -8 -12 -15 -21 -15 -8 0 -15 -4 -15 -10 0 -5 -7 -10 -15 -10 -8 0 -19 -9
-25 -21 -7 -12 -18 -18 -26 -15 -8 3 -14 1 -14 -5 0 -14 -71 -78 -87 -79 -6 0
-13 -4 -15 -8 -1 -5 -28 -30 -58 -56 -30 -26 -70 -62 -89 -79 -19 -18 -30 -26
-26 -18 5 9 4 12 -3 7 -7 -4 -12 -12 -12 -17 0 -16 -27 -39 -35 -31 -5 4 -5 2
-2 -4 3 -6 -29 -44 -71 -86 -42 -41 -87 -86 -99 -99 -12 -13 -27 -28 -33 -34
-6 -5 -27 -31 -47 -57 -19 -27 -41 -48 -47 -48 -6 0 -17 -19 -25 -42 -11 -35
-15 -182 -18 -758 -2 -393 -4 -719 -4 -725 -3 -97 8 -465 14 -471 3 -3 16 0
29 6 24 13 159 112 192 142 11 10 28 20 38 24 10 3 18 10 18 15 0 5 7 9 15 9
8 0 15 4 15 10 0 5 13 16 29 25 16 8 35 20 43 28 7 7 30 23 51 36 20 12 37 27
37 32 0 5 4 9 10 9 8 0 75 46 118 81 6 5 12 7 12 4 0 -3 10 3 22 15 12 11 25
20 29 20 4 0 14 6 21 13 8 6 21 17 30 22 58 36 256 172 272 187 11 10 28 20
38 24 10 3 18 9 18 12 0 4 16 16 35 26 19 11 35 23 35 28 0 4 5 8 12 8 6 0 37
20 67 43 31 24 67 50 80 57 14 7 30 17 35 22 58 47 72 58 78 58 4 0 27 15 52
32 24 18 56 41 72 50 40 24 64 39 99 64 17 11 68 47 114 79 88 60 100 69 131
97 10 9 32 24 47 32 15 8 38 24 51 36 12 11 22 18 22 15 0 -4 6 0 14 8 8 7 38
29 68 48 29 18 55 36 58 39 12 12 70 50 77 50 5 0 23 13 40 29 18 16 34 26 37
23 3 -2 8 3 12 12 3 9 14 16 23 16 10 0 28 11 41 25 13 14 29 25 37 25 7 0 13
5 13 10 0 6 7 10 15 10 9 0 18 7 21 15 4 8 10 15 15 15 11 0 112 64 131 83 8
8 23 17 34 21 11 3 29 14 40 24 10 10 35 28 54 42 19 13 38 28 41 33 3 5 10 9
15 9 11 1 57 30 65 41 3 5 9 8 13 7 10 -2 66 33 66 42 0 4 4 8 10 8 5 0 38 20
73 45 36 25 69 45 73 45 5 0 20 10 34 21 28 22 117 81 140 93 28 13 57 31 86
54 47 36 164 112 173 112 4 0 16 9 26 20 9 10 36 29 58 41 23 11 49 30 58 40
9 10 20 19 24 19 10 0 93 67 118 94 9 10 17 16 17 11 0 -13 109 109 110 123 0
6 5 12 10 12 6 0 10 5 10 11 0 6 8 23 19 37 34 49 70 120 80 159 21 78 23 101
27 231 2 74 5 137 7 140 4 7 1 1231 -3 1370 -2 65 -17 153 -19 110z"/>
<path d="M5190 1696 c0 -2 7 -7 16 -10 8 -3 12 -2 9 4 -6 10 -25 14 -25 6z"/>
</g>
</svg>
